Coordinates
version=1
nRows=26
nColumns=24
inDegrees=yes

Units are S.I. units (second, meters, Newtons, ...)
Angles are in degrees.

endheader
time	pelvis_tilt	pelvis_list	pelvis_rotation	pelvis_tx	pelvis_ty	pelvis_tz	hip_flexion_r	hip_adduction_r	hip_rotation_r	knee_angle_r	ankle_angle_r	subtalar_angle_r	mtp_angle_r	hip_flexion_l	hip_adduction_l	hip_rotation_l	knee_angle_l	ankle_angle_l	subtalar_angle_l	mtp_angle_l	lumbar_extension	lumbar_bending	lumbar_rotation
      4.51000000	     -6.31483531	     13.44885636	     -4.92390461	     -0.91310070	     -0.02936502	     -0.29057986	     11.46113081	    -19.85723817	     -4.61337714	    -59.89007842	    -35.42082305	     -3.09716999	     26.90653958	     22.05222100	     17.65884714	     -7.04323533	    -15.00409084	     -0.03217435	     -8.31295119	     -2.63656072	      2.99418046	    -14.16754540	      6.80231067
      4.51500000	     -6.13273960	     13.49916987	     -5.02063388	     -0.90653986	     -0.02799873	     -0.29099647	     12.27286696	    -19.96024183	     -4.26340508	    -60.80038282	    -34.12728187	     -3.70727210	     27.25920434	     21.06825425	     17.81458442	     -7.12226070	    -14.34520405	      0.16487753	     -8.04173938	     -2.19871525	      2.82075986	    -14.16594376	      6.68946544
      4.52000000	     -6.03451265	     13.41642315	     -5.09295568	     -0.90007275	     -0.02663288	     -0.29129819	     13.14232780	    -19.86536005	     -3.94836453	    -61.60101351	    -32.71427697	     -4.33357431	     27.64711908	     20.18013348	     17.79223043	     -7.35805899	    -13.68070214	     -0.04818354	     -7.74014370	      0.51176002	      2.70724229	    -14.03356408	      6.53776296
      4.52500000	     -5.95051098	     13.28127889	     -5.04487334	     -0.89356751	     -0.02522030	     -0.29184149	     13.93460534	    -19.74559472	     -3.77201147	    -62.28900704	    -31.05563002	     -4.65889740	     28.09307061	     19.29790861	     17.79281833	     -7.19064847	    -13.13182307	      0.20495429	     -7.42800987	      0.69499017	      2.58137541	    -13.84156164	      6.30359345
      4.53000000	     -5.83562908	     13.09252860	     -5.11813791	     -0.88711623	     -0.02375539	     -0.29225324	     14.73279957	    -19.50815714	     -3.44996639	    -62.88882560	    -29.34419998	     -4.82628169	     28.52653593	     18.40653339	     17.70246655	     -7.11753392	    -12.59469180	      0.46176910	     -7.15912398	      0.95454075	      2.44596339	    -13.58380685	      6.15169274
      4.53500000	     -5.74223752	     12.86702239	     -5.17473295	     -0.88070886	     -0.02230873	     -0.29266445	     15.53572047	    -19.20944191	     -3.15974112	    -63.40405123	    -27.68621832	     -5.05192787	     28.88974820	     17.55628088	     17.57472532	     -6.98839815	    -12.10101301	      0.68467048	     -6.93017235	      1.19958577	      2.32056775	    -13.28458793	      6.02499055
      4.54000000	     -5.63587387	     12.64301784	     -5.26962141	     -0.87425314	     -0.02091620	     -0.29305676	     16.33222453	    -18.89622314	     -2.83344528	    -63.86091924	    -26.02731248	     -5.15995612	     29.12635266	     16.70566820	     17.44438929	     -6.90703448	    -11.61668216	      0.90212744	     -6.76257627	      1.50252626	      2.20734447	    -12.98012217	      5.85229704
      4.54500000	     -5.55841229	     12.37055373	     -5.33125303	     -0.86784964	     -0.01955041	     -0.29343521	     17.12875237	    -18.50725727	     -2.55021499	    -64.24030870	    -24.48514629	     -5.33875475	     29.21092252	     15.89687684	     17.26678534	     -6.72459291	    -11.17258946	      1.10021365	     -6.65497812	      1.70856126	      2.10654856	    -12.63738695	      5.73714676
      4.55000000	     -5.45814141	     12.13244907	     -5.39296798	     -0.86151787	     -0.01826829	     -0.29379030	     17.91372150	    -18.14285901	     -2.25459257	    -64.60679829	    -22.90030798	     -5.44697119	     28.88945829	     15.09282188	     17.12638693	     -6.49264303	    -10.76760924	      1.27758183	     -6.59379744	      1.82504095	      1.97271727	    -12.33851224	      5.63586183
      4.55500000	     -5.43933477	     11.81117234	     -5.42487436	     -0.85511709	     -0.01704188	     -0.29420898	     18.72636393	    -17.67250253	     -2.03621839	    -64.83175251	    -21.71625337	     -5.90227490	     28.94988224	     14.36590379	     16.89910831	     -6.18263647	    -10.38672297	      1.52584215	     -6.56408844	      1.82072452	      1.93505172	    -11.93135210	      5.56515800
      4.56000000	     -5.33685472	     11.54478401	     -5.44022946	     -0.84874617	     -0.01584088	     -0.29459633	     19.47266372	    -17.28238338	     -1.88653525	    -65.15839506	    -19.95583701	     -5.98452339	     26.65621796	     13.54975727	     16.75641284	     -5.71435400	    -10.01936803	      1.87663956	     -6.67084402	      0.71514270	      1.80622218	    -11.61143886	      5.41865059
      4.56500000	     -5.32704973	     11.24797423	     -5.49094875	     -0.84242178	     -0.01475644	     -0.29496760	     20.28982982	    -16.79964294	     -1.61296906	    -65.27301364	    -18.94480170	     -6.39683575	     26.75894565	     12.85474216	     16.54109573	     -5.42655659	     -9.65212229	      2.12045152	     -6.64982039	      0.64316296	      1.78040859	    -11.23929073	      5.32646962
      4.57000000	     -5.22450779	     10.97097922	     -5.44453271	     -0.83608325	     -0.01361389	     -0.29546617	     20.96537575	    -16.40582462	     -1.53237377	    -65.43371426	    -17.37445226	     -6.49073501	     24.57216293	     12.02769390	     16.40721923	     -4.75324211	     -9.31201845	      2.66624425	     -6.79279567	     -1.63014331	      1.63811080	    -10.90966557	      5.10208660
      4.57500000	     -5.22913252	     10.67828875	     -5.51823772	     -0.82985639	     -0.01263375	     -0.29579185	     21.77935078	    -15.89635002	     -1.26306981	    -65.41060802	    -16.51990371	     -6.99015206	     24.63316059	     11.35440415	     16.18429531	     -4.49678162	     -8.92435361	      2.86963503	     -6.82156939	     -1.73632110	      1.62647034	    -10.54275912	      5.08813586
      4.58000000	     -5.06224888	     10.37673488	     -5.45037538	     -0.82356559	     -0.01145550	     -0.29633572	     22.31057166	    -15.48649593	     -1.25913865	    -65.36535133	    -15.17124409	     -7.18145973	     22.77179071	     10.41556008	     16.03636172	     -3.70587962	     -8.49842599	      3.29211254	     -7.14001236	     -4.00547463	      1.40727236	    -10.19717011	      4.86314623
      4.58500000	     -5.11029289	     10.07916891	     -5.51559974	     -0.81747040	     -0.01058370	     -0.29662534	     23.13838733	    -14.94277643	     -1.01243734	    -65.19810371	    -14.40822284	     -7.66481353	     22.80739129	      9.79322072	     15.79210130	     -3.50578178	     -8.09303877	      3.48146085	     -7.12965263	     -4.11560117	      1.42595914	     -9.83387513	      4.83080997
      4.59000000	     -5.13806221	      9.75756092	     -5.54078041	     -0.81138504	     -0.00968710	     -0.29696125	     23.88520027	    -14.39333962	     -0.85013669	    -64.92849427	    -13.62999543	     -8.08986288	     22.76320995	      9.12371717	     15.53467342	     -3.24274354	     -7.65106751	      3.62372535	     -7.18154171	     -4.29147459	      1.41174542	     -9.45147963	      4.76838936
      4.59500000	     -5.01324059	      9.49311271	     -5.50078943	     -0.80532849	     -0.00869159	     -0.29735353	     24.45393087	    -13.97454980	     -0.86385672	    -64.72387211	    -12.15012875	     -8.16190593	     20.01049889	      8.24755752	     15.38922993	     -2.48312163	     -7.22548508	      4.29726435	     -7.40789390	     -7.83634821	      1.22258580	     -9.16021820	      4.61040842
      4.60000000	     -5.05033699	      9.15263109	     -5.47717568	     -0.79939148	     -0.00787668	     -0.29771478	     25.14040194	    -13.41610218	     -0.77911663	    -64.28084986	    -11.38844924	     -8.45307822	     20.14686249	      7.59625622	     15.10623939	     -2.24167732	     -6.78618243	      4.42685577	     -7.42135585	     -7.92555985	      1.18634486	     -8.77011576	      4.50020521
      4.60500000	     -4.91933355	      8.79020596	     -5.41006973	     -0.79338547	     -0.00688027	     -0.29811038	     25.56117114	    -12.89434055	     -0.81766652	    -63.71209597	    -10.62465068	     -8.71018904	     20.16236863	      6.68182954	     14.82716345	     -1.73189716	     -6.22735403	      4.44935647	     -7.63180300	     -8.26050645	      0.97243831	     -8.37976360	      4.33995091
      4.61000000	     -4.86753499	      8.43897770	     -5.33869706	     -0.78747800	     -0.00603856	     -0.29852726	     26.06284576	    -12.37397545	     -0.84606492	    -63.09401027	     -9.79400845	     -8.82350274	     20.06486652	      5.89461303	     14.54976053	     -1.33501855	     -5.71786661	      4.51551188	     -7.82657835	     -8.76105894	      0.83089646	     -7.99250052	      4.11919907
      4.61500000	     -4.97939977	      8.12701644	     -5.30140095	     -0.78168741	     -0.00546862	     -0.29880250	     26.76541605	    -11.83303125	     -0.79517197	    -62.42996688	     -9.03923935	     -8.95059917	     20.12868461	      5.35339817	     14.26946560	     -1.16608833	     -5.29153404	      4.64005314	     -7.79594043	     -8.86806035	      0.86131563	     -7.64104590	      4.01511053
      4.62000000	     -4.88263931	      7.78052960	     -5.23579644	     -0.77581456	     -0.00467465	     -0.29914947	     27.16058878	    -11.32260621	     -0.87593167	    -61.66266569	     -8.16070213	     -8.98963437	     19.41659820	      4.50108925	     13.98849413	     -0.62026198	     -4.75427398	      4.76895550	     -8.09062868	    -10.05752284	      0.67077397	     -7.27172634	      3.86263453
      4.62500000	     -4.94780733	      7.46843497	     -5.06533374	     -0.77003870	     -0.00414336	     -0.29955631	     27.69717153	    -10.87282422	     -0.98720033	    -60.82076405	     -7.37007172	     -8.90031020	     19.45551880	      3.92240141	     13.71483339	     -0.39326877	     -4.37857064	      4.93682496	     -7.93805718	    -10.20918153	      0.63304099	     -6.93854078	      3.59836479
      4.63000000	     -4.93590395	      7.13522332	     -4.94092265	     -0.76426276	     -0.00357390	     -0.29991784	     28.11566176	    -10.39191248	     -1.10006249	    -59.87551459	     -6.65777493	     -8.88106347	     19.33787292	      3.24133223	     13.42224583	     -0.10597767	     -3.95326464	      5.02939582	     -7.96020379	    -10.43158251	      0.51716799	     -6.58481584	      3.38655395
      4.63500000	     -4.94532226	      6.82661705	     -4.79609999	     -0.75852256	     -0.00310614	     -0.30029203	     28.53564771	     -9.94725678	     -1.22811932	    -58.86890824	     -5.95481421	     -8.79779348	     19.13800051	      2.61075383	     13.15208340	      0.14891483	     -3.56638180	      5.14235674	     -7.96072816	    -10.66575588	      0.41936248	     -6.25805981	      3.13344013
